<svg id="visual" viewBox="0 0 900 300" width="900" height="300" xmlns="http://www.w3.org/2000/svg" xmlns:xlink="http://www.w3.org/1999/xlink" version="1.1"><rect x="0" y="0" width="900" height="300" fill="#202731"></rect><path d="M0 87L21.5 91.2C43 95.3 86 103.7 128.8 102.8C171.7 102 214.3 92 257.2 90C300 88 343 94 385.8 93.2C428.7 92.3 471.3 84.7 514.2 82.2C557 79.7 600 82.3 642.8 89.7C685.7 97 728.3 109 771.2 107.3C814 105.7 857 90.3 878.5 82.7L900 75L900 0L878.5 0C857 0 814 0 771.2 0C728.3 0 685.7 0 642.8 0C600 0 557 0 514.2 0C471.3 0 428.7 0 385.8 0C343 0 300 0 257.2 0C214.3 0 171.7 0 128.8 0C86 0 43 0 21.5 0L0 0Z" fill="#ff6f61"></path><path d="M0 100L21.5 93.2C43 86.3 86 72.7 128.8 72C171.7 71.3 214.3 83.7 257.2 87C300 90.3 343 84.7 385.8 82.2C428.7 79.7 471.3 80.3 514.2 79.2C557 78 600 75 642.8 76.2C685.7 77.3 728.3 82.7 771.2 82.5C814 82.3 857 76.7 878.5 73.8L900 71L900 0L878.5 0C857 0 814 0 771.2 0C728.3 0 685.7 0 642.8 0C600 0 557 0 514.2 0C471.3 0 428.7 0 385.8 0C343 0 300 0 257.2 0C214.3 0 171.7 0 128.8 0C86 0 43 0 21.5 0L0 0Z" fill="#f76455"></path><path d="M0 73L21.5 70.7C43 68.3 86 63.7 128.8 58.8C171.7 54 214.3 49 257.2 47.2C300 45.3 343 46.7 385.8 50.3C428.7 54 471.3 60 514.2 62.3C557 64.7 600 63.3 642.8 62.8C685.7 62.3 728.3 62.7 771.2 65.2C814 67.7 857 72.3 878.5 74.7L900 77L900 0L878.5 0C857 0 814 0 771.2 0C728.3 0 685.7 0 642.8 0C600 0 557 0 514.2 0C471.3 0 428.7 0 385.8 0C343 0 300 0 257.2 0C214.3 0 171.7 0 128.8 0C86 0 43 0 21.5 0L0 0Z" fill="#ee5849"></path><path d="M0 38L21.5 37.3C43 36.7 86 35.3 128.8 34.2C171.7 33 214.3 32 257.2 35.5C300 39 343 47 385.8 46.8C428.7 46.7 471.3 38.3 514.2 37.5C557 36.7 600 43.3 642.8 45.5C685.7 47.7 728.3 45.3 771.2 46.3C814 47.3 857 51.7 878.5 53.8L900 56L900 0L878.5 0C857 0 814 0 771.2 0C728.3 0 685.7 0 642.8 0C600 0 557 0 514.2 0C471.3 0 428.7 0 385.8 0C343 0 300 0 257.2 0C214.3 0 171.7 0 128.8 0C86 0 43 0 21.5 0L0 0Z" fill="#e64c3d"></path><path d="M0 28L21.5 27.7C43 27.3 86 26.7 128.8 24.5C171.7 22.3 214.3 18.7 257.2 18.3C300 18 343 21 385.8 20.5C428.7 20 471.3 16 514.2 17.5C557 19 600 26 642.8 29.2C685.7 32.3 728.3 31.7 771.2 31.2C814 30.7 857 30.3 878.5 30.2L900 30L900 0L878.5 0C857 0 814 0 771.2 0C728.3 0 685.7 0 642.8 0C600 0 557 0 514.2 0C471.3 0 428.7 0 385.8 0C343 0 300 0 257.2 0C214.3 0 171.7 0 128.8 0C86 0 43 0 21.5 0L0 0Z" fill="#dd3f31"></path></svg>