<svg id="visual" viewBox="0 0 900 300" width="900" height="300" xmlns="http://www.w3.org/2000/svg" xmlns:xlink="http://www.w3.org/1999/xlink" version="1.1"><rect x="0" y="0" width="900" height="300" fill="#202731"></rect><path d="M0 123L21.5 113C43 103 86 83 128.8 81.5C171.7 80 214.3 97 257.2 100.3C300 103.7 343 93.3 385.8 86C428.7 78.7 471.3 74.3 514.2 81.3C557 88.3 600 106.7 642.8 104.8C685.7 103 728.3 81 771.2 82.5C814 84 857 109 878.5 121.5L900 134L900 0L878.5 0C857 0 814 0 771.2 0C728.3 0 685.7 0 642.8 0C600 0 557 0 514.2 0C471.3 0 428.7 0 385.8 0C343 0 300 0 257.2 0C214.3 0 171.7 0 128.8 0C86 0 43 0 21.5 0L0 0Z" fill="#73188e"></path><path d="M0 70L21.5 64.8C43 59.7 86 49.3 128.8 52.8C171.7 56.3 214.3 73.7 257.2 84.7C300 95.7 343 100.3 385.8 95.5C428.7 90.7 471.3 76.3 514.2 74.7C557 73 600 84 642.8 86.2C685.7 88.3 728.3 81.7 771.2 78.3C814 75 857 75 878.5 75L900 75L900 0L878.5 0C857 0 814 0 771.2 0C728.3 0 685.7 0 642.8 0C600 0 557 0 514.2 0C471.3 0 428.7 0 385.8 0C343 0 300 0 257.2 0C214.3 0 171.7 0 128.8 0C86 0 43 0 21.5 0L0 0Z" fill="#ac0389"></path><path d="M0 27L21.5 26.2C43 25.3 86 23.7 128.8 30.2C171.7 36.7 214.3 51.3 257.2 52.2C300 53 343 40 385.8 41.3C428.7 42.7 471.3 58.3 514.2 59C557 59.7 600 45.3 642.8 44.5C685.7 43.7 728.3 56.3 771.2 55.8C814 55.3 857 41.7 878.5 34.8L900 28L900 0L878.5 0C857 0 814 0 771.2 0C728.3 0 685.7 0 642.8 0C600 0 557 0 514.2 0C471.3 0 428.7 0 385.8 0C343 0 300 0 257.2 0C214.3 0 171.7 0 128.8 0C86 0 43 0 21.5 0L0 0Z" fill="#da007b"></path><path d="M0 43L21.5 44.5C43 46 86 49 128.8 48.2C171.7 47.3 214.3 42.7 257.2 38.7C300 34.7 343 31.3 385.8 28.5C428.7 25.7 471.3 23.3 514.2 23.8C557 24.3 600 27.7 642.8 30.3C685.7 33 728.3 35 771.2 35.7C814 36.3 857 35.7 878.5 35.3L900 35L900 0L878.5 0C857 0 814 0 771.2 0C728.3 0 685.7 0 642.8 0C600 0 557 0 514.2 0C471.3 0 428.7 0 385.8 0C343 0 300 0 257.2 0C214.3 0 171.7 0 128.8 0C86 0 43 0 21.5 0L0 0Z" fill="#ff0066"></path></svg>